<?xml version="1.0" encoding="UTF-8"?>
<svg version="1.1" xmlns="http://www.w3.org/2000/svg" width="1618" height="800">
<path d="M0 0 C533.94 0 1067.88 0 1618 0 C1618 264 1618 528 1618 800 C1084.06 800 550.12 800 0 800 C0 536 0 272 0 0 Z " fill="#FEFEFE" transform="translate(0,0)"/>
<path d="M0 0 C14.24503055 11.7404098 23.26774181 29.24908976 25.1875 47.625 C26.51728011 68.01152561 24.69491388 85.40245672 15.1875 103.625 C14.5275 103.625 13.8675 103.625 13.1875 103.625 C12.81625 104.71167969 12.81625 104.71167969 12.4375 105.8203125 C7.33196443 117.27585793 -4.92154009 124.79893812 -16.015625 129.5625 C-33.67151196 136.26976432 -55.46674087 137.58470641 -73.02734375 129.85546875 C-80.09731807 126.53186537 -86.96569636 122.86193296 -92.8125 117.625 C-93.80443359 116.75294922 -93.80443359 116.75294922 -94.81640625 115.86328125 C-109.82941139 101.81885709 -114.81251381 82.50277424 -115.8125 62.625 C-115.85503906 61.79097656 -115.89757812 60.95695312 -115.94140625 60.09765625 C-116.22262333 48.83022508 -114.72514972 37.80339615 -109.8125 27.625 C-109.3175 26.51253906 -108.8225 25.40007812 -108.3125 24.25390625 C-104.63858109 16.2196601 -100.1792094 9.81361963 -93.8125 3.625 C-93.19890625 2.99078125 -92.5853125 2.3565625 -91.953125 1.703125 C-67.57354207 -21.84296792 -25.71669027 -18.88227173 0 0 Z " fill="#010101" transform="translate(334.8125,353.375)"/>
<path d="M0 0 C1.96337699 0.91439533 3.82533942 1.44502327 5.9375 1.90234375 C5.9375 2.56234375 5.9375 3.22234375 5.9375 3.90234375 C6.5975 4.10859375 7.2575 4.31484375 7.9375 4.52734375 C19.81773102 9.97244964 27.41883151 20.42021856 32.9375 31.90234375 C33.50791016 33.01802734 33.50791016 33.01802734 34.08984375 34.15625 C36.57447828 39.54743813 37.69833199 45.08662639 38.6875 50.90234375 C38.81535889 51.61841797 38.94321777 52.33449219 39.07495117 53.07226562 C40.41072727 61.80322158 39.9375 69.81347897 39.9375 78.90234375 C7.2675 78.90234375 -25.4025 78.90234375 -59.0625 78.90234375 C-56.7304882 90.72675532 -56.7304882 90.72675532 -52.1484375 100.9140625 C-51.0625 102.90234375 -51.0625 102.90234375 -50.0625 105.90234375 C-48.24536771 106.99381532 -48.24536771 106.99381532 -46.0625 107.90234375 C-44.99515625 108.52302734 -44.99515625 108.52302734 -43.90625 109.15625 C-34.58060347 114.36306931 -25.28326935 114.80404358 -14.890625 112.75 C-7.46032615 110.52296291 -2.61227022 106.35092547 1.05615234 99.57714844 C1.34699707 99.02446289 1.6378418 98.47177734 1.9375 97.90234375 C9.55895113 98.46806738 16.99088721 99.49342796 24.5 100.90234375 C25.97436523 101.16917969 25.97436523 101.16917969 27.47851562 101.44140625 C34.66763222 102.76740986 34.66763222 102.76740986 36.9375 103.90234375 C35.08027925 110.79361023 32.19748406 116.19459004 27.9375 121.90234375 C27.31875 122.7325 26.7 123.56265625 26.0625 124.41796875 C15.39058283 136.89469544 -1.29505018 142.04439584 -17.0625 143.90234375 C-31.18129128 144.66524674 -45.13470103 144.11999945 -58.0625 137.90234375 C-58.95710938 137.48082031 -59.85171875 137.05929688 -60.7734375 136.625 C-76.69606749 128.5744826 -87.9135282 114.66031221 -93.75585938 97.91503906 C-99.42457934 79.73152964 -99.2850269 58.87398394 -93.0625 40.90234375 C-92.711875 39.85304687 -92.36125 38.80375 -92 37.72265625 C-85.44366356 20.19356228 -73.12548021 7.32734414 -56.1640625 -0.421875 C-39.17548572 -6.96904857 -16.59146856 -8.32715752 0 0 Z " fill="#010101" transform="translate(309.0625,107.09765625)"/>
<path d="M0 0 C1.97635934 0.90403764 3.85322884 1.44242326 5.97265625 1.90234375 C5.97265625 2.56234375 5.97265625 3.22234375 5.97265625 3.90234375 C6.63265625 4.10859375 7.29265625 4.31484375 7.97265625 4.52734375 C22.45461853 11.1649098 30.70964184 25.1549324 36.1640625 39.50390625 C40.52438973 52.43743727 39.97265625 65.24417962 39.97265625 78.90234375 C7.30265625 78.90234375 -25.36734375 78.90234375 -59.02734375 78.90234375 C-56.69533195 90.72675532 -56.69533195 90.72675532 -52.11328125 100.9140625 C-51.02734375 102.90234375 -51.02734375 102.90234375 -50.02734375 105.90234375 C-48.21021146 106.99381532 -48.21021146 106.99381532 -46.02734375 107.90234375 C-44.96 108.52302734 -44.96 108.52302734 -43.87109375 109.15625 C-34.54544722 114.36306931 -25.2481131 114.80404358 -14.85546875 112.75 C-7.4251699 110.52296291 -2.57711397 106.35092547 1.09130859 99.57714844 C1.38215332 99.02446289 1.67299805 98.47177734 1.97265625 97.90234375 C9.59410738 98.46806738 17.02604346 99.49342796 24.53515625 100.90234375 C26.00952148 101.16917969 26.00952148 101.16917969 27.51367188 101.44140625 C34.70278847 102.76740986 34.70278847 102.76740986 36.97265625 103.90234375 C35.1154355 110.79361023 32.23264031 116.19459004 27.97265625 121.90234375 C27.35390625 122.7325 26.73515625 123.56265625 26.09765625 124.41796875 C15.42668204 136.89359301 -1.26047489 142.04643448 -17.02734375 143.90234375 C-27.13678126 144.44430788 -37.13573596 144.18165071 -47.02734375 141.90234375 C-47.82785156 141.7425 -48.62835937 141.58265625 -49.453125 141.41796875 C-64.84600235 137.68941581 -77.85959767 126.64067603 -86.33984375 113.65234375 C-97.45899241 94.55885616 -100.89364053 69.6017817 -95.33984375 48.08984375 C-94.62057453 45.67802842 -93.85311243 43.27980195 -93.02734375 40.90234375 C-92.65351562 39.81824219 -92.2796875 38.73414063 -91.89453125 37.6171875 C-89.22665783 30.62947931 -85.63652553 24.77033568 -81.02734375 18.90234375 C-80.455 18.14179687 -79.88265625 17.38125 -79.29296875 16.59765625 C-71.426506 6.88223858 -60.03248429 0.15037131 -48.02734375 -3.09765625 C-47.21652344 -3.32066406 -46.40570312 -3.54367188 -45.5703125 -3.7734375 C-31.02828424 -7.0571213 -13.45105951 -6.66267434 0 0 Z " fill="#010101" transform="translate(1098.02734375,107.09765625)"/>
<path d="M0 0 C12.95484542 10.57079401 19.33129973 26.13013856 22.3125 42.1875 C23.2101864 51.08275619 23 60.05956245 23 69 C-9.67 69 -42.34 69 -76 69 C-72.10047576 87.63988858 -72.10047576 87.63988858 -60 100 C-51.6168851 104.76686926 -41.76650086 104.73769155 -32.53515625 102.71875 C-23.65785798 100.20191967 -19.03449322 95.55173984 -14 88 C-2.5333702 88.7993564 8.91331608 90.99735644 20 94 C16.6381974 106.06293873 10.14563461 116.54208101 -0.78857422 123.06738281 C-19.74856726 133.6895191 -42.68549486 137.79531643 -64 132 C-82.47156994 125.98139629 -97.05977255 115.63577059 -106.4453125 98.3359375 C-117.01772803 76.36810403 -116.6741243 50.37797469 -108.8671875 27.7109375 C-106.19876348 20.730623 -102.59797274 14.86911855 -98 9 C-97.18208984 7.93458984 -97.18208984 7.93458984 -96.34765625 6.84765625 C-72.75796741 -22.07052701 -27.84893679 -21.12405148 0 0 Z " fill="#010101" transform="translate(722,354)"/>
<path d="M0 0 C11.63468267 9.22994582 17.715395 21.39084085 19.5703125 36.0390625 C20.09162985 43.81183686 19.9207 51.6173617 19.86328125 59.40234375 C19.85767617 61.64820572 19.85341039 63.89407139 19.85041809 66.13993835 C19.83904113 72.01055277 19.80963639 77.88093951 19.77630615 83.75146484 C19.74545012 89.75810671 19.73187974 95.76478586 19.71679688 101.77148438 C19.68475905 113.52745915 19.63205045 125.28320615 19.5703125 137.0390625 C6.7003125 137.0390625 -6.1696875 137.0390625 -19.4296875 137.0390625 C-19.44427002 134.26894775 -19.45885254 131.49883301 -19.47387695 128.64477539 C-19.52430786 119.47250213 -19.59091799 110.30039711 -19.66540241 101.12828922 C-19.71005039 95.56950911 -19.74931888 90.01080136 -19.77612305 84.4519043 C-19.80221147 79.08308008 -19.84265326 73.71453512 -19.89287376 68.34588432 C-19.90950501 66.30190961 -19.92104252 64.25788663 -19.92730141 62.21385384 C-19.9369832 59.34157448 -19.96509121 56.47000355 -19.99731445 53.59790039 C-19.99587936 52.76063919 -19.99444427 51.92337799 -19.9929657 51.06074524 C-20.12162587 42.90400018 -21.96484012 35.49738385 -27.73046875 29.48046875 C-33.92230699 24.22808183 -41.76670027 24.33186778 -49.5078125 24.62890625 C-56.65063757 25.37591485 -61.87727854 28.10310366 -66.8671875 33.2265625 C-74.17691193 43.29363264 -72.90380462 55.86126159 -72.94140625 67.703125 C-72.95827217 69.70666593 -72.97642496 71.7101964 -72.99580383 73.7137146 C-73.04310221 78.95787284 -73.07304166 84.20198865 -73.09924316 89.44628906 C-73.13441973 95.75414177 -73.19137466 102.06183167 -73.24463654 108.36955261 C-73.32291375 117.92603461 -73.37369843 127.48230695 -73.4296875 137.0390625 C-86.2996875 137.0390625 -99.1696875 137.0390625 -112.4296875 137.0390625 C-112.4296875 89.5190625 -112.4296875 41.9990625 -112.4296875 -6.9609375 C-100.2196875 -6.9609375 -88.0096875 -6.9609375 -75.4296875 -6.9609375 C-74.7696875 1.6190625 -74.1096875 10.1990625 -73.4296875 19.0390625 C-72.4190625 17.2034375 -71.4084375 15.3678125 -70.3671875 13.4765625 C-63.73825759 2.16212389 -55.13293954 -4.58556712 -42.4296875 -7.9609375 C-27.57292466 -11.56792746 -12.52913316 -8.58409998 0 0 Z " fill="#020202" transform="translate(872.4296875,347.9609375)"/>
<path d="M0 0 C11.63468267 9.22994582 17.715395 21.39084085 19.5703125 36.0390625 C20.09162985 43.81183686 19.9207 51.6173617 19.86328125 59.40234375 C19.85767617 61.64820572 19.85341039 63.89407139 19.85041809 66.13993835 C19.83904113 72.01055277 19.80963639 77.88093951 19.77630615 83.75146484 C19.74545012 89.75810671 19.73187974 95.76478586 19.71679688 101.77148438 C19.68475905 113.52745915 19.63205045 125.28320615 19.5703125 137.0390625 C6.7003125 137.0390625 -6.1696875 137.0390625 -19.4296875 137.0390625 C-19.44427002 134.26894775 -19.45885254 131.49883301 -19.47387695 128.64477539 C-19.52430786 119.47250213 -19.59091799 110.30039711 -19.66540241 101.12828922 C-19.71005039 95.56950911 -19.74931888 90.01080136 -19.77612305 84.4519043 C-19.80221147 79.08308008 -19.84265326 73.71453512 -19.89287376 68.34588432 C-19.90950501 66.30190961 -19.92104252 64.25788663 -19.92730141 62.21385384 C-19.9369832 59.34157448 -19.96509121 56.47000355 -19.99731445 53.59790039 C-19.99587936 52.76063919 -19.99444427 51.92337799 -19.9929657 51.06074524 C-20.12162587 42.90400018 -21.96484012 35.49738385 -27.73046875 29.48046875 C-33.92230699 24.22808183 -41.76670027 24.33186778 -49.5078125 24.62890625 C-56.65063757 25.37591485 -61.87727854 28.10310366 -66.8671875 33.2265625 C-74.17691193 43.29363264 -72.90380462 55.86126159 -72.94140625 67.703125 C-72.95827217 69.70666593 -72.97642496 71.7101964 -72.99580383 73.7137146 C-73.04310221 78.95787284 -73.07304166 84.20198865 -73.09924316 89.44628906 C-73.13441973 95.75414177 -73.19137466 102.06183167 -73.24463654 108.36955261 C-73.32291375 117.92603461 -73.37369843 127.48230695 -73.4296875 137.0390625 C-86.2996875 137.0390625 -99.1696875 137.0390625 -112.4296875 137.0390625 C-112.4296875 89.5190625 -112.4296875 41.9990625 -112.4296875 -6.9609375 C-100.2196875 -6.9609375 -88.0096875 -6.9609375 -75.4296875 -6.9609375 C-74.7696875 1.6190625 -74.1096875 10.1990625 -73.4296875 19.0390625 C-72.4190625 17.2034375 -71.4084375 15.3678125 -70.3671875 13.4765625 C-63.57833015 1.91237664 -55.02146782 -3.76367739 -42.4296875 -7.9609375 C-27.60699257 -11.61549849 -12.49295423 -8.55931266 0 0 Z " fill="#020202" transform="translate(488.4296875,347.9609375)"/>
<path d="M0 0 C11.1612349 8.78947248 17.04262786 20.8186466 19.2345314 34.71704865 C20.22830928 43.14626032 19.85624737 51.7402136 19.79296875 60.2109375 C19.78736242 62.43294995 19.78309723 64.65496614 19.78010559 66.87698364 C19.76873845 72.68018113 19.73934254 78.48314765 19.70599365 84.28625488 C19.67511607 90.22596107 19.66156271 96.16570516 19.64648438 102.10546875 C19.61446395 113.72667948 19.56176377 125.34765925 19.5 136.96875 C6.63 136.96875 -6.24 136.96875 -19.5 136.96875 C-19.51458252 134.23416504 -19.52916504 131.49958008 -19.54418945 128.68212891 C-19.59464859 119.62162044 -19.66126353 110.5612818 -19.73571491 101.50094032 C-19.78033911 96.01057036 -19.81961273 90.52027324 -19.84643555 85.02978516 C-19.87254785 79.72579361 -19.91300617 74.42208358 -19.96318626 69.11826706 C-19.97980147 67.10023897 -19.99134889 65.08216224 -19.99761391 63.06407547 C-20.00731335 60.22552604 -20.03544176 57.38768824 -20.06762695 54.54931641 C-20.06619186 53.72500122 -20.06475677 52.90068604 -20.0632782 52.0513916 C-20.19845264 43.5575506 -22.01670487 35.98225896 -27.609375 29.44140625 C-32.93195265 25.29551416 -38.26749705 24.41249983 -44.8125 24.46875 C-45.92854614 24.47406738 -45.92854614 24.47406738 -47.06713867 24.47949219 C-54.75690047 24.71026029 -60.16849688 27.20604009 -66.0625 32.09375 C-67.69614993 34.01345232 -67.69614993 34.01345232 -68.5 36.96875 C-69.16 36.96875 -69.82 36.96875 -70.5 36.96875 C-72.11215603 43.16773406 -72.80197284 48.94961949 -72.81884766 55.34399414 C-72.83391609 56.67732788 -72.83391609 56.67732788 -72.84928894 58.03759766 C-72.87990413 60.94302794 -72.89709528 63.84836702 -72.9140625 66.75390625 C-72.93279161 68.78129347 -72.9523663 70.80867303 -72.9727478 72.83604431 C-73.02389086 78.14760815 -73.06361163 83.45919721 -73.10089111 88.77087402 C-73.14104297 94.20082752 -73.19208411 99.6306777 -73.2421875 105.06054688 C-73.33873559 115.69654893 -73.42219993 126.33259427 -73.5 136.96875 C-86.04 136.96875 -98.58 136.96875 -111.5 136.96875 C-111.5 89.44875 -111.5 41.92875 -111.5 -7.03125 C-99.62 -7.03125 -87.74 -7.03125 -75.5 -7.03125 C-75.17 2.20875 -74.84 11.44875 -74.5 20.96875 C-72.52 17.33875 -70.54 13.70875 -68.5 9.96875 C-52.28036447 -12.04759376 -22.23238497 -15.25245015 0 0 Z " fill="#000000" transform="translate(476.5,111.03125)"/>
<path d="M0 0 C8.41165709 7.19628458 14.61032039 15.29466671 15.875 26.5 C11.9984573 27.21886963 8.12069194 27.93069727 4.24169922 28.63623047 C2.2789504 28.99471242 0.31719945 29.35864403 -1.64453125 29.72265625 C-3.51044922 30.06103516 -3.51044922 30.06103516 -5.4140625 30.40625 C-6.55568848 30.61572266 -7.69731445 30.82519531 -8.87353516 31.04101562 C-12.0349111 31.48728284 -14.93918291 31.71641914 -18.125 31.5 C-19.84765625 29.671875 -19.84765625 29.671875 -21.1875 27.25 C-24.33060979 22.07645753 -26.7966067 19.33156904 -32.625 17.25 C-41.34437419 15.42041487 -51.08142107 15.32739343 -59.125 19.5 C-62.64310644 22.13857983 -63.87587188 23.65919258 -65.125 27.875 C-65.125 32.07844257 -64.77973709 35.20629756 -62.125 38.5 C-54.62148224 43.79342286 -45.71758162 45.06736202 -36.875 46.5625 C-10.33073125 51.17029451 -10.33073125 51.17029451 -0.0625 57 C0.95972656 57.5671875 1.98195313 58.134375 3.03515625 58.71875 C10.76675892 63.56828345 16.4616534 70.32806576 19.40625 79.07421875 C21.96672745 92.32468954 19.21059262 102.92269769 11.87109375 113.86328125 C1.75700111 127.22338405 -14.81037255 133.60833291 -30.96484375 136.08984375 C-52.9373261 138.5826529 -75.30162547 135.42630228 -93.125 121.5 C-101.49927786 113.94272486 -106.6774138 104.66756383 -108.125 93.5 C-104.12447048 92.78021863 -100.12260376 92.06844345 -96.11938477 91.36376953 C-94.76027901 91.12340543 -93.40154467 90.88093055 -92.04321289 90.63623047 C-90.08060266 90.28306153 -88.11647925 89.93833518 -86.15234375 89.59375 C-84.38491821 89.27954102 -84.38491821 89.27954102 -82.58178711 88.95898438 C-79.05426537 88.49060802 -75.67907696 88.42062363 -72.125 88.5 C-71.56232422 89.62148437 -71.56232422 89.62148437 -70.98828125 90.765625 C-67.13799525 98.17524341 -64.0891083 102.54282648 -56.21411133 105.85839844 C-52.26208984 107.07213134 -48.2880981 106.93037192 -44.1875 106.875 C-43.33220703 106.88660156 -42.47691406 106.89820313 -41.59570312 106.91015625 C-34.50819 106.87771912 -29.06198297 105.51917579 -23.125 101.4375 C-20.20842802 97.1537849 -20.17294528 93.5265262 -21.125 88.5 C-24.26687372 82.44067211 -28.47129772 81.46968854 -34.75048828 79.45898438 C-40.16656832 77.91981766 -45.64603858 76.91077856 -51.1875 75.9375 C-73.4616301 71.96044554 -73.4616301 71.96044554 -82.8125 66.8125 C-83.4504248 66.46364746 -84.08834961 66.11479492 -84.74560547 65.75537109 C-94.13388993 60.423132 -100.63670005 53.15234595 -103.67138672 42.60009766 C-104.41837079 39.14177851 -104.30947441 35.64678777 -104.3125 32.125 C-104.32474609 31.3825 -104.33699219 30.64 -104.34960938 29.875 C-104.3749923 20.29717614 -100.40616143 11.5459685 -94.22265625 4.2578125 C-70.76626711 -18.19392683 -25.63086263 -19.14750784 0 0 Z " fill="#010101" transform="translate(620.125,114.5)"/>
<path d="M0 0 C0.61488281 0.47695312 1.22976562 0.95390625 1.86328125 1.4453125 C7.73507073 6.62706907 11.12513092 13.8259346 14 21 C14 22.32 14 23.64 14 25 C9.64779129 25.84378183 5.2929557 26.67315618 0.9375 27.5 C-0.29162109 27.73847656 -1.52074219 27.97695312 -2.78710938 28.22265625 C-4.58051758 28.56103516 -4.58051758 28.56103516 -6.41015625 28.90625 C-7.50465088 29.11572266 -8.59914551 29.32519531 -9.72680664 29.54101562 C-13.21909681 30.03072291 -16.47863185 30.20083747 -20 30 C-21.8203125 28.171875 -21.8203125 28.171875 -23.125 25.75 C-26.22816709 20.54811201 -28.66541946 17.83377876 -34.5 15.75 C-43.25401561 13.91314606 -52.91434613 13.86471757 -61 18 C-64.21013047 19.8764117 -64.21013047 19.8764117 -66 23 C-66.77269433 28.0636139 -66.72969435 32.56909038 -64 37 C-57.2759972 42.00292028 -49.03671178 43.29195876 -40.96640015 44.6550293 C-37.51730431 45.24147364 -34.07931464 45.88699184 -30.640625 46.53125 C-29.97085129 46.65608765 -29.30107758 46.78092529 -28.61100769 46.9095459 C-16.88594565 49.1236224 -5.79356302 51.87914424 4 59 C5.0725 59.763125 6.145 60.52625 7.25 61.3125 C13.83680163 67.7496016 17.52322105 74.56139359 18.3359375 83.83203125 C18.41590813 91.98103883 18.07584249 98.74982536 14 106 C13.57589844 106.76699219 13.15179688 107.53398437 12.71484375 108.32421875 C4.74919785 121.39320324 -8.94295193 129.1368005 -23.5 132.9375 C-43.96777765 137.48255063 -68.55679458 136.86404217 -86.75 125.6875 C-98.03567187 118.01778334 -106.98030875 108.80430284 -110 95 C-110 94.01 -110 93.02 -110 92 C-105.99947048 91.28021863 -101.99760376 90.56844345 -97.99438477 89.86376953 C-96.63527901 89.62340543 -95.27654467 89.38093055 -93.91821289 89.13623047 C-91.95560266 88.78306153 -89.99147925 88.43833518 -88.02734375 88.09375 C-86.25991821 87.77954102 -86.25991821 87.77954102 -84.45678711 87.45898438 C-80.92926537 86.99060802 -77.55407696 86.92062363 -74 87 C-73.69707031 87.59167969 -73.39414063 88.18335938 -73.08203125 88.79296875 C-69.57436228 95.40897206 -65.91542411 100.62662239 -59 104 C-48.89864385 106.13366902 -37.43955766 106.46126922 -27.8828125 102.265625 C-24.45786747 99.9633798 -23.16953928 97.64182726 -22.125 93.6875 C-21.97091307 89.1419356 -22.59210747 86.86722133 -25 83 C-31.78640094 77.43941493 -42.22754288 76.86484306 -50.53515625 75.359375 C-71.5468936 71.42681915 -89.88454894 66.71494805 -102.8125 48.4375 C-105.56602735 42.7855228 -106.41457067 37.10532803 -106.4375 30.875 C-106.44136719 30.141604 -106.44523437 29.40820801 -106.44921875 28.65258789 C-106.29791201 21.38907635 -104.18319247 15.53691311 -101 9 C-100.34 9 -99.68 9 -99 9 C-98.731875 8.40960938 -98.46375 7.81921875 -98.1875 7.2109375 C-92.83945275 -2.74628205 -81.35830234 -8.05531914 -71.03515625 -11.1875 C-47.24528067 -17.5559609 -19.92505486 -15.49298269 0 0 Z " fill="#010101" transform="translate(184,116)"/>
<path d="M0 0 C0 0.66 0 1.32 0 2 C0.99 2.2784375 0.99 2.2784375 2 2.5625 C10.69280165 6.72780079 18.38515956 15.38184974 21.9375 24.3125 C23 28 23 28 23 32 C18.64779129 32.84378183 14.2929557 33.67315618 9.9375 34.5 C8.70837891 34.73847656 7.47925781 34.97695313 6.21289062 35.22265625 C4.41948242 35.56103516 4.41948242 35.56103516 2.58984375 35.90625 C1.49534912 36.11572266 0.40085449 36.32519531 -0.72680664 36.54101562 C-4.21909681 37.03072291 -7.47863185 37.20083747 -11 37 C-12.8203125 35.171875 -12.8203125 35.171875 -14.125 32.75 C-17.22816709 27.54811201 -19.66541946 24.83377876 -25.5 22.75 C-34.25401561 20.91314606 -43.91434613 20.86471757 -52 25 C-55.21013047 26.8764117 -55.21013047 26.8764117 -57 30 C-57.77142948 35.05532512 -57.74021605 39.58133459 -55 44 C-48.25018236 48.85922206 -40.34339541 50.23758513 -32.3125 51.5625 C-30.00841312 51.97395568 -27.70501768 52.38930283 -25.40234375 52.80859375 C-24.30132324 53.0082373 -23.20030273 53.20788086 -22.06591797 53.41357422 C-5.90061992 56.50555112 12.31415834 61.24934559 22.25 75.375 C26.50193752 81.66146676 27.34555249 88.10946311 27.3125 95.5 C27.32861328 96.22058594 27.34472656 96.94117188 27.36132812 97.68359375 C27.37034625 107.65763685 21.58978827 117.33629479 15 124.625 C6.41407976 132.62465697 -4.73114667 137.32364733 -16 140 C-17.3921875 140.33644531 -17.3921875 140.33644531 -18.8125 140.6796875 C-39.61096251 144.89715351 -62.76763902 142.42966285 -80.7265625 130.66796875 C-91.60777809 122.99772905 -97.70904939 113.91851419 -101 101 C-101 100.34 -101 99.68 -101 99 C-96.99947048 98.28021863 -92.99760376 97.56844345 -88.99438477 96.86376953 C-87.63527901 96.62340543 -86.27654467 96.38093055 -84.91821289 96.13623047 C-82.95560266 95.78306153 -80.99147925 95.43833518 -79.02734375 95.09375 C-77.25991821 94.77954102 -77.25991821 94.77954102 -75.45678711 94.45898438 C-71.89197215 93.98565631 -68.58975252 93.75016072 -65 94 C-63.06640625 96.44921875 -63.06640625 96.44921875 -61.5625 99.6875 C-58.62687097 105.26914443 -56.01087879 108.78664837 -50 111 C-40.26507864 113.11689277 -28.03113024 113.72674382 -18.8984375 109.25390625 C-15.76563449 107.1847092 -14.38509647 105.49571966 -13 102 C-12.62569469 97.39441726 -13.30523821 94.07807865 -15.8125 90.1875 C-23.50319251 84.90957377 -32.47819079 83.66427716 -41.5 82.125 C-59.80520009 78.96332071 -78.31139585 75.27987148 -90.6015625 60.08203125 C-97.35502723 50.02729186 -98.31155805 38.90415558 -96.57421875 27.109375 C-93.78148471 16.21257225 -84.98114171 7.44899878 -75.6953125 1.53125 C-51.89586155 -11.26583182 -24.49457671 -8.83778683 0 0 Z " fill="#010101" transform="translate(1093,346)"/>
<path d="M0 0 C2.88609951 1.82664388 2.88609951 1.82664388 5.9765625 2.7421875 C16.96349964 12.98001529 24.29867722 23.89209642 26.9765625 38.7421875 C15.10136433 41.75087494 3.04991021 43.71681109 -9.0234375 45.7421875 C-9.30316406 44.96875 -9.58289063 44.1953125 -9.87109375 43.3984375 C-13.02071082 35.21550956 -16.24266878 28.24529857 -24.25390625 24.05078125 C-28.26898266 22.65694643 -31.76375971 22.27874122 -35.9609375 22.3671875 C-36.66605469 22.37878906 -37.37117188 22.39039063 -38.09765625 22.40234375 C-47.52824904 22.69923278 -51.94600014 25.07704675 -58.45703125 31.8046875 C-60.22347935 33.75810356 -60.22347935 33.75810356 -61.0234375 36.7421875 C-61.6834375 36.7421875 -62.3434375 36.7421875 -63.0234375 36.7421875 C-67.83907495 57.53112237 -70.63972761 78.47973174 -59.0234375 97.7421875 C-58.4665625 98.6703125 -57.9096875 99.5984375 -57.3359375 100.5546875 C-51.47227726 106.10139313 -45.55920815 108.07718338 -37.5234375 108.3046875 C-28.97318712 107.96853854 -22.28038651 106.45175612 -16.1484375 100.2421875 C-12.24023945 95.36386937 -10.62357148 89.70541973 -9.0234375 83.7421875 C2.74239118 85.24504965 14.34269164 87.45404857 25.9765625 89.7421875 C27.03509463 92.91778389 26.94525788 93.90222824 26.2265625 97.0546875 C26.06671875 97.79332031 25.906875 98.53195312 25.7421875 99.29296875 C21.74035874 112.09473729 10.97142961 124.64757613 -0.6484375 131.1171875 C-2.42986496 132.01284964 -4.22067901 132.89027419 -6.0234375 133.7421875 C-6.6628125 134.05929687 -7.3021875 134.37640625 -7.9609375 134.703125 C-23.59632267 142.01411529 -44.82930146 141.78632549 -61.0234375 136.7421875 C-70.12651662 133.24761075 -78.88408121 128.42318045 -86.0234375 121.7421875 C-86.76851562 121.04996094 -87.51359375 120.35773438 -88.28125 119.64453125 C-104.25374625 103.42838675 -107.37018787 82.93164804 -107.40429688 61.12036133 C-107.15356747 40.91347881 -100.20418337 23.07712003 -85.86328125 8.5546875 C-63.08805816 -12.65398585 -26.56513462 -15.72697357 0 0 Z " fill="#010101" transform="translate(182.0234375,348.2578125)"/>
<path d="M0 0 C13.2 0 26.4 0 40 0 C44.15470625 10.38676563 47.92689743 20.58278579 51.00366211 31.31860352 C52.49355474 36.44945301 54.18064468 41.4773254 56 46.5 C58.26671077 52.77195273 60.27140955 59.07468481 62.10327148 65.48657227 C63.40726195 70.03778529 64.81250358 74.54345375 66.2824707 79.04370117 C69.1326195 87.79040194 71.37721222 96.52717199 73.23828125 105.53515625 C73.8155981 108.83514324 73.8155981 108.83514324 75 111 C75.18310226 110.24846146 75.36620453 109.49692291 75.55485535 108.72261047 C80.72609702 87.68053215 86.88141724 67.072474 93.57281494 46.46850586 C95.07025928 41.85075771 96.55498259 37.22890527 98.04174328 32.60770893 C99.19514059 29.02346462 100.35017873 25.43978324 101.51106262 21.85795593 C103.56446125 15.51459003 105.58334411 9.16993058 107.41569519 2.75849915 C108 1 108 1 109 0 C111.95705321 -0.08868299 114.89065056 -0.11520296 117.84765625 -0.09765625 C119.17729652 -0.09553383 119.17729652 -0.09553383 120.53379822 -0.09336853 C123.37673254 -0.08775215 126.21958931 -0.07519691 129.0625 -0.0625 C130.98502491 -0.05748711 132.90755104 -0.05292384 134.83007812 -0.04882812 C139.55341549 -0.03777741 144.27669458 -0.02050183 149 0 C148.34067594 5.81255745 146.3155808 10.96048559 144.265625 16.39453125 C143.88008453 17.43000092 143.49454407 18.46547058 143.09732056 19.53231812 C141.81969191 22.96086193 140.53474 26.38661534 139.25 29.8125 C137.89131677 33.45403322 136.53458187 37.09628898 135.17782593 40.73854065 C134.23352172 43.27354768 133.28832758 45.80822031 132.34243774 48.34263611 C127.14372508 62.27513462 122.00869018 76.23094025 116.875 90.1875 C115.20614609 94.72280979 113.53685156 99.25795715 111.8671875 103.79296875 C111.47204956 104.86627945 111.07691162 105.93959015 110.6697998 107.04542542 C106.13038953 119.36999367 101.56479743 131.68481121 97 144 C82.15 144 67.3 144 52 144 C47.55254237 132.88135593 47.55254237 132.88135593 45.9375 127.8125 C44.74488618 124.07086607 43.35944754 120.51028603 41.78735352 116.91235352 C40.32682367 113.36496428 39.18200598 109.71009658 38 106.0625 C36.12953021 100.31957323 34.15930233 94.64078616 32 89 C31.5227511 87.73723837 31.04618481 86.47421854 30.5703125 85.2109375 C30.33481689 84.58638672 30.09932129 83.96183594 29.85668945 83.31835938 C27.22548135 76.32989875 24.6624868 69.32264304 22.17578125 62.28125 C20.82284522 58.50561456 19.41713522 54.75190504 18 51 C14.61878586 42.03995439 11.28832988 33.06881989 8.0859375 24.04296875 C7.00719394 21.02015857 5.89111358 18.01431529 4.7578125 15.01171875 C3.76852859 12.38552694 2.78629883 9.75698075 1.8125 7.125 C1.46832031 6.19945313 1.12414062 5.27390625 0.76953125 4.3203125 C0 2 0 2 0 0 Z " fill="#010101" transform="translate(852,104)"/>
<path d="M0 0 C12.87 0 25.74 0 39 0 C39 11.55 39 23.1 39 35 C47.91 35 56.82 35 66 35 C66 44.57 66 54.14 66 64 C57.09 64 48.18 64 39 64 C39.10806734 74.23130109 39.22015648 84.46253637 39.33933926 94.69371414 C39.39451865 99.44438626 39.44793071 104.1950646 39.49731445 108.94580078 C39.54503147 113.52995894 39.59737697 118.11404296 39.65294075 122.69811249 C39.67333105 124.44759018 39.69204959 126.19708818 39.70907402 127.94660187 C39.73319167 130.39579102 39.76323611 132.84484076 39.79467773 135.29394531 C39.80331093 136.38043617 39.80331093 136.38043617 39.81211853 137.48887634 C39.81461197 142.34652967 39.81461197 142.34652967 41 147 C45.95749307 149.48656592 50.96869706 149.23709241 56.375 149.125 C57.20644531 149.11597656 58.03789063 149.10695313 58.89453125 149.09765625 C60.92981337 149.0742622 62.96494564 149.03839725 65 149 C65.83963669 153.08206348 66.67061559 157.1658422 67.5 161.25 C67.85771484 162.98830078 67.85771484 162.98830078 68.22265625 164.76171875 C68.44824219 165.87675781 68.67382812 166.99179687 68.90625 168.140625 C69.11572266 169.16704102 69.32519531 170.19345703 69.54101562 171.25097656 C70 174 70 174 70 178 C55.61358968 182.06204527 38.13843821 183.80997549 24 178 C23.27941406 177.70996094 22.55882812 177.41992188 21.81640625 177.12109375 C16.85229244 174.87832778 12.93265493 171.73353316 9 168 C8.22269531 167.32324219 8.22269531 167.32324219 7.4296875 166.6328125 C5.59895711 164.54197834 4.86707446 162.55310426 3.9375 159.9375 C3.61652344 159.05964844 3.29554688 158.18179688 2.96484375 157.27734375 C-0.15499915 146.67998264 -0.26328 136.48229343 -0.1953125 125.5234375 C-0.19157605 123.74411173 -0.18873207 121.96478389 -0.18673706 120.18545532 C-0.17915031 115.53304223 -0.15954516 110.88075671 -0.1373291 106.22839355 C-0.11676309 101.46868617 -0.10771248 96.70895789 -0.09765625 91.94921875 C-0.07629395 82.63274782 -0.04115299 73.31640455 0 64 C-6.27 64 -12.54 64 -19 64 C-19 54.43 -19 44.86 -19 35 C-12.73 35 -6.46 35 0 35 C0 23.45 0 11.9 0 0 Z " fill="#020202" transform="translate(536,306)"/>
<path d="M0 0 C12.87 0 25.74 0 39 0 C39 11.55 39 23.1 39 35 C47.91 35 56.82 35 66 35 C66 44.57 66 54.14 66 64 C57.09 64 48.18 64 39 64 C39.08548146 74.23136573 39.17922111 84.46256407 39.28752708 94.69371414 C39.33748642 99.44437994 39.38381654 104.19502355 39.421875 108.94580078 C39.45873232 113.53001959 39.50509358 118.11405253 39.55806351 122.69811249 C39.57660506 124.4475758 39.59171392 126.19707896 39.60334396 127.94660187 C39.6202105 130.39591023 39.64924631 132.84479313 39.68115234 135.29394531 C39.68331253 136.01827255 39.68547272 136.74259979 39.68769836 137.48887634 C39.74826981 141.12537588 39.89144905 143.96209269 42 147 C46.4412983 149.70044524 51.29003113 149.22806566 56.3125 149.125 C57.14845703 149.11597656 57.98441406 149.10695313 58.84570312 149.09765625 C60.89725969 149.07420989 62.94866777 149.03834266 65 149 C65.83963669 153.08206348 66.67061559 157.1658422 67.5 161.25 C67.85771484 162.98830078 67.85771484 162.98830078 68.22265625 164.76171875 C68.44824219 165.87675781 68.67382812 166.99179687 68.90625 168.140625 C69.11572266 169.16704102 69.32519531 170.19345703 69.54101562 171.25097656 C70 174 70 174 70 178 C55.61358968 182.06204527 38.13843821 183.80997549 24 178 C23.27941406 177.70996094 22.55882812 177.41992188 21.81640625 177.12109375 C12.87249161 173.08027031 7.10091142 166.87946296 3 158 C-0.3913868 147.11087169 -0.3991895 136.40897477 -0.29296875 125.1328125 C-0.28735853 123.35920576 -0.2830952 121.5855943 -0.28010559 119.8119812 C-0.26876887 115.19243036 -0.23940095 110.57317224 -0.20599365 105.95373535 C-0.17504879 101.22049924 -0.16154861 96.48721483 -0.14648438 91.75390625 C-0.11451797 82.50245628 -0.06184447 73.25129852 0 64 C-6.27 64 -12.54 64 -19 64 C-19 54.43 -19 44.86 -19 35 C-12.73 35 -6.46 35 0 35 C0 23.45 0 11.9 0 0 Z " fill="#020202" transform="translate(920,306)"/>
<path d="M0 0 C12.54 0 25.08 0 38 0 C38 11.22 38 22.44 38 34 C46.91 34 55.82 34 65 34 C65 43.57 65 53.14 65 63 C56.09 63 47.18 63 38 63 C38.06293016 73.08377612 38.13835022 83.16724695 38.23571491 93.25075054 C38.28042773 97.93301864 38.31968185 102.61519954 38.34643555 107.29760742 C38.37245944 111.81705836 38.41285535 116.33617393 38.46318626 120.85541725 C38.47986117 122.57892495 38.49137157 124.30249067 38.49761391 126.02606773 C38.50724832 128.44180774 38.53529873 130.85668855 38.56762695 133.2722168 C38.56619186 133.98359802 38.56475677 134.69497925 38.5632782 135.42791748 C38.6455016 139.77694102 39.36149239 142.52412611 42 146 C44.79887041 147.89846967 46.98554711 148.24306361 50.328125 148.1953125 C51.12734375 148.18886719 51.9265625 148.18242187 52.75 148.17578125 C53.575 148.15902344 54.4 148.14226562 55.25 148.125 C56.09046875 148.11597656 56.9309375 148.10695312 57.796875 148.09765625 C59.86470604 148.07415817 61.93238995 148.03828908 64 148 C69.16994478 169.67930178 69.16994478 169.67930178 69 177 C52.9537378 181.91212108 33.94867299 182.25788219 18.5625 175.0625 C11.68587357 171.2626322 8.11962981 166.55999702 4 160 C3.34 159.01 2.68 158.02 2 157 C0.087993 151.59746003 -0.27853213 146.8632318 -0.22705078 141.21899414 C-0.22734283 140.36941132 -0.22763489 139.51982849 -0.22793579 138.64450073 C-0.22655105 135.85794587 -0.2110304 133.07166396 -0.1953125 130.28515625 C-0.19157932 128.34460089 -0.18873379 126.40404364 -0.18673706 124.46348572 C-0.17912459 119.37208798 -0.15949667 114.28080552 -0.1373291 109.18945312 C-0.11681917 103.98764607 -0.10772435 98.78582027 -0.09765625 93.58398438 C-0.07624845 83.38926429 -0.04108583 73.1946598 0 63 C-6.6 63 -13.2 63 -20 63 C-20 53.43 -20 43.86 -20 34 C-13.4 34 -6.8 34 0 34 C0 22.78 0 11.56 0 0 Z " fill="#000000" transform="translate(723,70)"/>
<path d="M0 0 C12.54 0 25.08 0 38 0 C38 47.52 38 95.04 38 144 C25.46 144 12.92 144 0 144 C0 96.48 0 48.96 0 0 Z " fill="#000000" transform="translate(803,104)"/>
<path d="M0 0 C12.54 0 25.08 0 38 0 C38 47.52 38 95.04 38 144 C25.46 144 12.92 144 0 144 C0 96.48 0 48.96 0 0 Z " fill="#000000" transform="translate(656,104)"/>
<path d="M0 0 C495 0 990 0 1500 0 C1500 0.99 1500 1.98 1500 3 C1005 3 510 3 0 3 C0 2.01 0 1.02 0 0 Z " fill="#ADADAD" transform="translate(118,797)"/>
<path d="M0 0 C9.21841976 6.81440049 12.58505081 16.95458354 14.48828125 27.87890625 C16.64282039 43.71572225 15.41436712 60.00196368 5.53125 73.23828125 C0.61710711 78.89205278 -4.6861627 82.52185238 -12.20703125 83.35546875 C-22.28743974 83.7595588 -29.27355086 81.58887102 -36.8125 74.875 C-45.62212153 65.29661433 -47.39348428 52.12781534 -47.3125 39.625 C-47.30686035 38.705979 -47.3012207 37.78695801 -47.29541016 36.84008789 C-47.08080352 24.80405545 -44.36268864 12.41582331 -36.30078125 3.01953125 C-26.27237193 -6.10744802 -11.62338936 -7.0198606 0 0 Z " fill="#FEFEFE" transform="translate(306,374)"/>
<path d="M0 0 C4.95321872 3.29297319 9.83923222 8.47501077 11.109375 14.40234375 C12.0999824 22.06579267 10.65202545 28.10334635 6.109375 34.40234375 C-0.61712106 40.74299874 -5.95797705 41.93757898 -15.10546875 41.75 C-21.54731916 41.15833366 -24.82630956 38.5224515 -29.203125 34.02734375 C-33.39554067 27.50580827 -34.95006772 22.14723534 -33.890625 14.40234375 C-31.73014712 6.84746511 -26.06753012 1.93047053 -19.515625 -2.03515625 C-12.6069467 -3.51558731 -6.36805614 -3.17273719 0 0 Z " fill="#030303" transform="translate(1174.890625,445.59765625)"/>
<path d="M0 0 C4.2728077 2.90672353 7.27313171 6.68087615 9.19921875 11.49609375 C10.04461778 18.47876456 10.47945035 25.53522319 6.63671875 31.68359375 C2.93478904 36.3417091 -1.17048053 38.61932684 -6.80078125 40.49609375 C-14.51424411 41.13193326 -20.61097863 41.42267135 -26.80078125 36.49609375 C-32.12871027 31.1557742 -35.08424187 26.97201709 -35.17578125 19.24609375 C-35.05918912 13.4618287 -34.52269066 9.04739801 -30.80078125 4.49609375 C-21.44998062 -4.23001873 -11.42104883 -6.32908986 0 0 Z " fill="#030303" transform="translate(1193.80078125,209.50390625)"/>
<path d="M0 0 C8.36101706 -0.60199323 15.42686787 2.86149771 21.8046875 8.1171875 C28.1210999 14.67705905 30.62890625 22.34781098 30.62890625 31.32421875 C10.49890625 31.32421875 -9.63109375 31.32421875 -30.37109375 31.32421875 C-28.73476122 21.50622355 -25.38748676 12.32304 -17.5234375 5.7890625 C-11.97558442 2.00593406 -6.5428049 0.89465042 0 0 Z " fill="#FAFAFA" transform="translate(1069.37109375,130.67578125)"/>
<path d="M0 0 C8.36101706 -0.60199323 15.42686787 2.86149771 21.8046875 8.1171875 C28.1210999 14.67705905 30.62890625 22.34781098 30.62890625 31.32421875 C10.49890625 31.32421875 -9.63109375 31.32421875 -30.37109375 31.32421875 C-28.73476122 21.50622355 -25.38748676 12.32304 -17.5234375 5.7890625 C-11.97558442 2.00593406 -6.5428049 0.89465042 0 0 Z " fill="#FAFAFA" transform="translate(280.37109375,130.67578125)"/>
<path d="M0 0 C8.49537333 -0.59616655 15.49730141 2.69999653 22 8.05859375 C28.3164124 14.6184653 30.82421875 22.28921723 30.82421875 31.265625 C11.02421875 31.265625 -8.77578125 31.265625 -29.17578125 31.265625 C-28.18943085 20.4157706 -27.01389794 14.54959544 -19.30078125 7.390625 C-13.32646949 2.53930417 -7.58065811 0.92546634 0 0 Z " fill="#FAFAFA" transform="translate(676.17578125,367.734375)"/>
<path d="M0 0 C4.96437459 5.02617179 8.13797375 8.42304861 8.375 15.625 C8.30956735 21.69569542 7.14220752 25.53757195 3 30 C-2.76954792 35.04993254 -7.63940384 36.37250127 -15.1484375 36.2734375 C-21.27839009 35.68563383 -25.33027876 33.03203705 -29.375 28.5 C-33.11413456 23.90441563 -34.47939097 20.28189437 -34.3046875 14.37109375 C-33.53205353 8.35841658 -30.82984413 4.34741499 -26.125 0.625 C-17.97869477 -4.87076106 -8.40731648 -5.79170691 0 0 Z " fill="#020202" transform="translate(835,49)"/>
<path d="M0 0 C4.70547726 3.30142356 8.09298052 7.13259523 9.625 12.75 C10.22910734 18.46252381 10.01059958 22.92808545 6.625 27.75 C1.20460658 33.20067495 -2.65672276 36.85063855 -10.5625 37.0625 C-16.97366447 36.97791999 -21.50830881 35.55922968 -26.12890625 31.03125 C-30.94432791 25.55443307 -32.85476393 21.9175456 -32.6796875 14.53515625 C-32.12377259 9.45352382 -30.26366777 6.48596698 -26.5390625 3.0625 C-18.36079554 -3.45504608 -9.40845444 -5.56432846 0 0 Z " fill="#020202" transform="translate(686.375,48.25)"/>
</svg>
