{
	"asset":{
		"version":"2.0",
		"generator":"Created using the official Cinema 4D glTF Exporter 1.000x284978"
	},
	"scenes":[{
		"nodes":[0,
		1,
		6,
		7,
		8,
		9,
		10]
	}],
	"nodes":[{
		"name":"Cube",
		"scale":[1.0,
		1.0,
		1.0],
		"translation":[0.0,
		-0.03685184568166733,
		0.0],
		"rotation":[0.0,
		0.0,
		0.0,
		-1.0],
		"mesh":0
	},
	{
		"name":"Cube.7",
		"scale":[1.0,
		1.0,
		1.0],
		"translation":[2.0747859477996828,
		0.579826831817627,
		1.4369120597839356],
		"rotation":[0.0,
		0.0,
		0.0,
		-1.0],
		"children":[2,
		3,
		4,
		5]
	},
	{
		"name":"Cube.7-Mat.5",
		"mesh":1
	},
	{
		"name":"Cube.7-Mat.3",
		"mesh":2
	},
	{
		"name":"Cube.7-Mat.9",
		"mesh":3
	},
	{
		"name":"Cube.7-Mat.10",
		"mesh":4
	},
	{
		"name":"Cube.6",
		"scale":[1.0,
		1.0,
		1.0],
		"translation":[-0.26448461413383486,
		1.0802251100540162,
		2.959120988845825],
		"rotation":[0.0,
		0.0,
		0.0,
		-1.0],
		"mesh":5
	},
	{
		"name":"Cube.4",
		"scale":[1.0,
		1.0,
		1.0],
		"translation":[-1.6430617570877076,
		0.2564743757247925,
		-0.43233996629714968],
		"rotation":[2.16622364490604e-9,
		-0.2055882066488266,
		1.0311633324988634e-8,
		-0.9786385893821716],
		"mesh":6
	},
	{
		"name":"Cube.2",
		"scale":[1.0,
		1.0,
		1.0],
		"translation":[1.4135998487472535,
		0.44999998807907107,
		-2.9052746295928957],
		"rotation":[6.614608305532954e-10,
		-0.08877976983785629,
		7.421160130860471e-9,
		-0.9960512518882752],
		"mesh":7
	},
	{
		"name":"Cone.3",
		"scale":[1.0,
		1.0,
		1.0],
		"translation":[0.0,
		2.546626329421997,
		0.0],
		"rotation":[0.0,
		0.0,
		0.0,
		-1.0],
		"mesh":8
	},
	{
		"name":"Cylinder",
		"scale":[1.0,
		1.0,
		1.0],
		"translation":[0.0,
		0.30000001192092898,
		0.0],
		"rotation":[0.0,
		0.0,
		0.0,
		-1.0],
		"mesh":9
	}],
	"meshes":[{
		"name":"Cube",
		"primitives":[{
			"attributes":{
				"POSITION":1,
				"NORMAL":2,
				"TEXCOORD_0":3
			},
			"indices":0
		}]
	},
	{
		"name":"Cube.7-Mat.5",
		"primitives":[{
			"attributes":{
				"POSITION":5,
				"NORMAL":6,
				"TEXCOORD_0":7
			},
			"indices":4,
			"material":0
		}]
	},
	{
		"name":"Cube.7-Mat.3",
		"primitives":[{
			"attributes":{
				"POSITION":9,
				"NORMAL":10,
				"TEXCOORD_0":11
			},
			"indices":8,
			"material":1
		}]
	},
	{
		"name":"Cube.7-Mat.9",
		"primitives":[{
			"attributes":{
				"POSITION":13,
				"NORMAL":14,
				"TEXCOORD_0":15
			},
			"indices":12,
			"material":2
		}]
	},
	{
		"name":"Cube.7-Mat.10",
		"primitives":[{
			"attributes":{
				"POSITION":17,
				"NORMAL":18,
				"TEXCOORD_0":19
			},
			"indices":16,
			"material":3
		}]
	},
	{
		"name":"Cube.6",
		"primitives":[{
			"attributes":{
				"POSITION":21,
				"NORMAL":22,
				"TEXCOORD_0":23
			},
			"indices":20,
			"material":4
		}]
	},
	{
		"name":"Cube.4",
		"primitives":[{
			"attributes":{
				"POSITION":25,
				"NORMAL":26,
				"TEXCOORD_0":27
			},
			"indices":24,
			"material":5
		}]
	},
	{
		"name":"Cube.2",
		"primitives":[{
			"attributes":{
				"POSITION":29,
				"NORMAL":30,
				"TEXCOORD_0":31
			},
			"indices":28,
			"material":6
		}]
	},
	{
		"name":"Cone.3",
		"primitives":[{
			"attributes":{
				"POSITION":33,
				"NORMAL":34,
				"TEXCOORD_0":35
			},
			"indices":32,
			"material":7
		}]
	},
	{
		"name":"Cylinder",
		"primitives":[{
			"attributes":{
				"POSITION":37,
				"NORMAL":38,
				"TEXCOORD_0":39
			},
			"indices":36,
			"material":8
		}]
	}],
	"accessors":[{
		"bufferView":0,
		"type":"SCALAR",
		"componentType":5123,
		"count":36,
		"byteOffset":0,
		"min":[0],
		"max":[23]
	},
	{
		"bufferView":1,
		"type":"VEC3",
		"componentType":5126,
		"count":24,
		"byteOffset":0,
		"min":[-6.730000019073486,
		-0.019999999552965165,
		-6.230000019073486],
		"max":[6.730000019073486,
		0.019999999552965165,
		6.230000019073486]
	},
	{
		"bufferView":1,
		"type":"VEC3",
		"componentType":5126,
		"count":24,
		"byteOffset":12,
		"min":[-1.0,
		-1.0,
		-1.0],
		"max":[1.0,
		1.0,
		1.0]
	},
	{
		"bufferView":1,
		"type":"VEC2",
		"componentType":5126,
		"count":24,
		"byteOffset":24,
		"min":[0.0,
		0.0],
		"max":[1.0,
		1.0]
	},
	{
		"bufferView":2,
		"type":"SCALAR",
		"componentType":5123,
		"count":36,
		"byteOffset":0,
		"min":[0],
		"max":[23]
	},
	{
		"bufferView":3,
		"type":"VEC3",
		"componentType":5126,
		"count":24,
		"byteOffset":0,
		"min":[-1.333265781402588,
		-0.6382952928543091,
		-0.5768348574638367],
		"max":[-0.3281319737434387,
		0.07864165306091309,
		0.4282989799976349]
	},
	{
		"bufferView":3,
		"type":"VEC3",
		"componentType":5126,
		"count":24,
		"byteOffset":12,
		"min":[-0.7937188148498535,
		-0.9999688267707825,
		-0.7937188148498535],
		"max":[0.7937188148498535,
		0.9999688267707825,
		0.7937188148498535]
	},
	{
		"bufferView":3,
		"type":"VEC2",
		"componentType":5126,
		"count":24,
		"byteOffset":24,
		"min":[0.0,
		0.0],
		"max":[1.0,
		1.0]
	},
	{
		"bufferView":4,
		"type":"SCALAR",
		"componentType":5123,
		"count":36,
		"byteOffset":0,
		"min":[0],
		"max":[23]
	},
	{
		"bufferView":5,
		"type":"VEC3",
		"componentType":5126,
		"count":24,
		"byteOffset":0,
		"min":[-2.1852128505706789,
		-0.6056744456291199,
		-0.22434872388839723],
		"max":[-1.0278764963150025,
		0.2460208386182785,
		0.9329877495765686]
	},
	{
		"bufferView":5,
		"type":"VEC3",
		"componentType":5126,
		"count":24,
		"byteOffset":12,
		"min":[-0.8753125667572022,
		-1.0,
		-0.8753125667572022],
		"max":[0.8753125667572022,
		1.0,
		0.8753125667572022]
	},
	{
		"bufferView":5,
		"type":"VEC2",
		"componentType":5126,
		"count":24,
		"byteOffset":24,
		"min":[0.0,
		0.0],
		"max":[1.0,
		1.0]
	},
	{
		"bufferView":6,
		"type":"SCALAR",
		"componentType":5123,
		"count":144,
		"byteOffset":0,
		"min":[0],
		"max":[95]
	},
	{
		"bufferView":7,
		"type":"VEC3",
		"componentType":5126,
		"count":96,
		"byteOffset":0,
		"min":[-2.0211315155029299,
		0.18337349593639375,
		0.028469661250710489],
		"max":[-1.209352731704712,
		0.376246839761734,
		0.6530876755714417]
	},
	{
		"bufferView":7,
		"type":"VEC3",
		"componentType":5126,
		"count":96,
		"byteOffset":12,
		"min":[-0.8066250085830689,
		-1.0,
		-0.8066250085830689],
		"max":[0.8066250085830689,
		1.0,
		0.8066250085830689]
	},
	{
		"bufferView":7,
		"type":"VEC2",
		"componentType":5126,
		"count":96,
		"byteOffset":24,
		"min":[0.0,
		0.0],
		"max":[1.0,
		1.0]
	},
	{
		"bufferView":8,
		"type":"SCALAR",
		"componentType":5123,
		"count":144,
		"byteOffset":0,
		"min":[0],
		"max":[95]
	},
	{
		"bufferView":9,
		"type":"VEC3",
		"componentType":5126,
		"count":96,
		"byteOffset":0,
		"min":[-1.8679072856903077,
		0.18337349593639375,
		0.15457797050476075],
		"max":[-1.317970633506775,
		0.3810283839702606,
		0.4712497889995575]
	},
	{
		"bufferView":9,
		"type":"VEC3",
		"componentType":5126,
		"count":96,
		"byteOffset":12,
		"min":[-0.8066250085830689,
		-1.0,
		-0.8066250085830689],
		"max":[0.8066250085830689,
		1.0,
		0.8066250085830689]
	},
	{
		"bufferView":9,
		"type":"VEC2",
		"componentType":5126,
		"count":96,
		"byteOffset":24,
		"min":[0.0,
		0.0],
		"max":[1.0,
		1.0]
	},
	{
		"bufferView":10,
		"type":"SCALAR",
		"componentType":5123,
		"count":252,
		"byteOffset":0,
		"min":[0],
		"max":[123]
	},
	{
		"bufferView":11,
		"type":"VEC3",
		"componentType":5126,
		"count":124,
		"byteOffset":0,
		"min":[-1.464102864265442,
		-1.0506268739700318,
		-4.372806549072266],
		"max":[-1.03631591796875,
		-0.6926687955856323,
		-3.8733534812927248]
	},
	{
		"bufferView":11,
		"type":"VEC3",
		"componentType":5126,
		"count":124,
		"byteOffset":12,
		"min":[-0.7775748372077942,
		-0.830638587474823,
		-0.6467456221580505],
		"max":[0.7849200963973999,
		0.8708804249763489,
		0.6342917084693909]
	},
	{
		"bufferView":11,
		"type":"VEC2",
		"componentType":5126,
		"count":124,
		"byteOffset":24,
		"min":[0.0,
		0.0],
		"max":[1.0,
		1.0]
	},
	{
		"bufferView":12,
		"type":"SCALAR",
		"componentType":5123,
		"count":36,
		"byteOffset":0,
		"min":[0],
		"max":[23]
	},
	{
		"bufferView":13,
		"type":"VEC3",
		"componentType":5126,
		"count":24,
		"byteOffset":0,
		"min":[-0.3584684729576111,
		-0.3584684729576111,
		-0.3584684729576111],
		"max":[0.3584684729576111,
		0.3584684729576111,
		0.3584684729576111]
	},
	{
		"bufferView":13,
		"type":"VEC3",
		"componentType":5126,
		"count":24,
		"byteOffset":12,
		"min":[-1.0,
		-1.0,
		-1.0],
		"max":[1.0,
		1.0,
		1.0]
	},
	{
		"bufferView":13,
		"type":"VEC2",
		"componentType":5126,
		"count":24,
		"byteOffset":24,
		"min":[0.0,
		0.0],
		"max":[1.0,
		1.0]
	},
	{
		"bufferView":14,
		"type":"SCALAR",
		"componentType":5123,
		"count":36,
		"byteOffset":0,
		"min":[0],
		"max":[23]
	},
	{
		"bufferView":15,
		"type":"VEC3",
		"componentType":5126,
		"count":24,
		"byteOffset":0,
		"min":[-0.8710067868232727,
		-0.46982866525650027,
		1.0214394330978394],
		"max":[-0.23134946823120118,
		0.7198286652565002,
		1.6610968112945557]
	},
	{
		"bufferView":15,
		"type":"VEC3",
		"componentType":5126,
		"count":24,
		"byteOffset":12,
		"min":[-1.0,
		-1.0,
		-1.0],
		"max":[1.0,
		1.0,
		1.0]
	},
	{
		"bufferView":15,
		"type":"VEC2",
		"componentType":5126,
		"count":24,
		"byteOffset":24,
		"min":[0.0,
		0.0],
		"max":[1.0,
		1.0]
	},
	{
		"bufferView":16,
		"type":"SCALAR",
		"componentType":5123,
		"count":864,
		"byteOffset":0,
		"min":[0],
		"max":[391]
	},
	{
		"bufferView":17,
		"type":"VEC3",
		"componentType":5126,
		"count":392,
		"byteOffset":0,
		"min":[-1.149999976158142,
		-2.460237979888916,
		-1.149999976158142],
		"max":[1.149999976158142,
		1.7752004861831666,
		1.149999976158142]
	},
	{
		"bufferView":17,
		"type":"VEC3",
		"componentType":5126,
		"count":392,
		"byteOffset":12,
		"min":[-0.8864868879318237,
		-1.0,
		-0.8864868879318237],
		"max":[0.8864868879318237,
		0.28161877393722536,
		0.8864868879318237]
	},
	{
		"bufferView":17,
		"type":"VEC2",
		"componentType":5126,
		"count":392,
		"byteOffset":24,
		"min":[0.0,
		0.0],
		"max":[1.0,
		1.0]
	},
	{
		"bufferView":18,
		"type":"SCALAR",
		"componentType":5123,
		"count":96,
		"byteOffset":0,
		"min":[0],
		"max":[49]
	},
	{
		"bufferView":19,
		"type":"VEC3",
		"componentType":5126,
		"count":50,
		"byteOffset":0,
		"min":[-0.5,
		-0.3100000023841858,
		-0.5],
		"max":[0.5,
		0.3100000023841858,
		0.5]
	},
	{
		"bufferView":19,
		"type":"VEC3",
		"componentType":5126,
		"count":50,
		"byteOffset":12,
		"min":[-0.9238795638084412,
		-1.0,
		-0.9238795638084412],
		"max":[0.9238795638084412,
		1.0,
		0.9238795638084412]
	},
	{
		"bufferView":19,
		"type":"VEC2",
		"componentType":5126,
		"count":50,
		"byteOffset":24,
		"min":[0.0,
		0.0],
		"max":[1.0,
		1.0]
	}],
	"bufferViews":[{
		"target":34963,
		"buffer":0,
		"byteOffset":0,
		"byteLength":72
	},
	{
		"target":34962,
		"buffer":0,
		"byteOffset":72,
		"byteLength":768,
		"byteStride":32
	},
	{
		"target":34963,
		"buffer":1,
		"byteOffset":0,
		"byteLength":72
	},
	{
		"target":34962,
		"buffer":1,
		"byteOffset":72,
		"byteLength":768,
		"byteStride":32
	},
	{
		"target":34963,
		"buffer":2,
		"byteOffset":0,
		"byteLength":72
	},
	{
		"target":34962,
		"buffer":2,
		"byteOffset":72,
		"byteLength":768,
		"byteStride":32
	},
	{
		"target":34963,
		"buffer":3,
		"byteOffset":0,
		"byteLength":288
	},
	{
		"target":34962,
		"buffer":3,
		"byteOffset":288,
		"byteLength":3072,
		"byteStride":32
	},
	{
		"target":34963,
		"buffer":4,
		"byteOffset":0,
		"byteLength":288
	},
	{
		"target":34962,
		"buffer":4,
		"byteOffset":288,
		"byteLength":3072,
		"byteStride":32
	},
	{
		"target":34963,
		"buffer":5,
		"byteOffset":0,
		"byteLength":504
	},
	{
		"target":34962,
		"buffer":5,
		"byteOffset":504,
		"byteLength":3968,
		"byteStride":32
	},
	{
		"target":34963,
		"buffer":6,
		"byteOffset":0,
		"byteLength":72
	},
	{
		"target":34962,
		"buffer":6,
		"byteOffset":72,
		"byteLength":768,
		"byteStride":32
	},
	{
		"target":34963,
		"buffer":7,
		"byteOffset":0,
		"byteLength":72
	},
	{
		"target":34962,
		"buffer":7,
		"byteOffset":72,
		"byteLength":768,
		"byteStride":32
	},
	{
		"target":34963,
		"buffer":8,
		"byteOffset":0,
		"byteLength":1728
	},
	{
		"target":34962,
		"buffer":8,
		"byteOffset":1728,
		"byteLength":12544,
		"byteStride":32
	},
	{
		"target":34963,
		"buffer":9,
		"byteOffset":0,
		"byteLength":192
	},
	{
		"target":34962,
		"buffer":9,
		"byteOffset":192,
		"byteLength":1600,
		"byteStride":32
	}],
	"buffers":[{
		"uri":"data:application/octet-stream;base64,",
		"byteLength":840
	},
	{
		"uri":"data:application/octet-stream;base64,",
		"byteLength":840
	},
	{
		"uri":"data:application/octet-stream;base64,",
		"byteLength":840
	},
	{
		"uri":"data:application/octet-stream;base64,",
		"byteLength":3360
	},
	{
		"uri":"data:application/octet-stream;base64,",
		"byteLength":3360
	},
	{
		"uri":"data:application/octet-stream;base64,",
		"byteLength":4472
	},
	{
		"uri":"data:application/octet-stream;base64,",
		"byteLength":840
	},
	{
		"uri":"data:application/octet-stream;base64,",
		"byteLength":840
	},
	{
		"uri":"data:application/octet-stream;base64,",
		"byteLength":14272
	},
	{
		"uri":"data:application/octet-stream;base64,",
		"byteLength":1792
	}],
	"materials":[{
		"pbrMetallicRoughness":{
			"baseColorFactor":[0.8,
			0.6549333333333334,
			0.2879999999999999,
			1.0],
			"metallicFactor":0.0,
			"roughnessFactor":0.5
		},
		"emissiveFactor":[0.0,
		0.0,
		0.0],
		"alphaMode":"OPAQUE",
		"doubleSided":false,
		"name":"Mat.5"
	},
	{
		"pbrMetallicRoughness":{
			"baseColorFactor":[0.8,
			0.20800000000000003,
			0.20800000000000003,
			1.0],
			"metallicFactor":0.0,
			"roughnessFactor":0.0
		},
		"emissiveFactor":[0.0,
		0.0,
		0.0],
		"alphaMode":"OPAQUE",
		"doubleSided":false,
		"name":"Mat.3"
	},
	{
		"pbrMetallicRoughness":{
			"baseColorFactor":[0.33390000000000005,
			0.63,
			0.3388350000000002,
			1.0],
			"metallicFactor":0.0,
			"roughnessFactor":0.5
		},
		"emissiveFactor":[0.0,
		0.0,
		0.0],
		"alphaMode":"OPAQUE",
		"doubleSided":false,
		"name":"Mat.9"
	},
	{
		"pbrMetallicRoughness":{
			"baseColorFactor":[0.7701333333333333,
			0.8,
			0.352,
			1.0],
			"metallicFactor":0.0,
			"roughnessFactor":0.5
		},
		"emissiveFactor":[0.0,
		0.0,
		0.0],
		"alphaMode":"OPAQUE",
		"doubleSided":false,
		"name":"Mat.10"
	},
	{
		"pbrMetallicRoughness":{
			"baseColorFactor":[0.33,
			0.33,
			0.33,
			1.0],
			"metallicFactor":0.0,
			"roughnessFactor":0.5
		},
		"emissiveFactor":[0.0,
		0.0,
		0.0],
		"alphaMode":"OPAQUE",
		"doubleSided":false,
		"name":"Mat.8"
	},
	{
		"pbrMetallicRoughness":{
			"baseColorFactor":[0.6994666666666667,
			0.33600000000000015,
			0.8,
			1.0],
			"metallicFactor":0.0,
			"roughnessFactor":0.5
		},
		"emissiveFactor":[0.0,
		0.0,
		0.0],
		"alphaMode":"OPAQUE",
		"doubleSided":false,
		"name":"Mat.7"
	},
	{
		"pbrMetallicRoughness":{
			"baseColorFactor":[0.22400000000000004,
			0.32000000000000025,
			0.8,
			1.0],
			"metallicFactor":0.0,
			"roughnessFactor":0.5
		},
		"emissiveFactor":[0.0,
		0.0,
		0.0],
		"alphaMode":"OPAQUE",
		"doubleSided":false,
		"name":"Mat.4"
	},
	{
		"pbrMetallicRoughness":{
			"baseColorFactor":[0.0,
			0.8,
			0.013333333333333288,
			1.0],
			"metallicFactor":0.0,
			"roughnessFactor":0.0
		},
		"emissiveFactor":[0.0,
		0.0,
		0.0],
		"alphaMode":"OPAQUE",
		"doubleSided":false,
		"name":"Mat"
	},
	{
		"pbrMetallicRoughness":{
			"baseColorFactor":[0.46,
			0.21712000000000016,
			0.0552,
			1.0],
			"metallicFactor":0.0,
			"roughnessFactor":0.0
		},
		"emissiveFactor":[0.0,
		0.0,
		0.0],
		"alphaMode":"OPAQUE",
		"doubleSided":false,
		"name":"Mat.1"
	}]
}