{
	"asset":{
		"version":"2.0",
		"generator":"Created using the official Cinema 4D glTF Exporter 1.000x284978"
	},
	"scenes":[{
		"nodes":[0,
		3,
		6,
		7,
		8,
		9,
		10,
		11,
		12]
	}],
	"nodes":[{
		"name":"Cube.7",
		"scale":[1.0,
		1.0,
		1.0],
		"translation":[2.4845855236053469,
		0.859653651714325,
		0.9629404544830322],
		"rotation":[0.0,
		0.0,
		0.0,
		-1.0],
		"children":[1,
		2]
	},
	{
		"name":"Cube.7-Mat.9",
		"mesh":0
	},
	{
		"name":"Cube.7-Mat.10",
		"mesh":1
	},
	{
		"name":"Cube.8",
		"scale":[1.0,
		1.0,
		1.0],
		"translation":[2.4845855236053469,
		0.859653651714325,
		0.9629404544830322],
		"rotation":[0.0,
		0.0,
		0.0,
		-1.0],
		"children":[4,
		5]
	},
	{
		"name":"Cube.8-Mat.9",
		"mesh":2
	},
	{
		"name":"Cube.8-Mat.10",
		"mesh":3
	},
	{
		"name":"Cube.6",
		"scale":[1.0,
		1.0,
		1.0],
		"translation":[-0.26448461413383486,
		1.0802251100540162,
		2.959120988845825],
		"rotation":[0.0,
		0.0,
		0.0,
		-1.0],
		"mesh":4
	},
	{
		"name":"Cube.4",
		"scale":[1.0,
		1.0,
		1.0],
		"translation":[-1.8985134363174439,
		0.3499999940395355,
		-0.49885955452919009],
		"rotation":[2.16622364490604e-9,
		-0.2055882066488266,
		1.0311633324988634e-8,
		-0.9786385893821716],
		"mesh":5
	},
	{
		"name":"Cube.3",
		"scale":[1.0,
		1.0,
		1.0],
		"translation":[1.878683090209961,
		0.30000001192092898,
		1.0506757497787476],
		"rotation":[0.0,
		-0.7396820783615112,
		0.0,
		0.6729564666748047],
		"mesh":6
	},
	{
		"name":"Cube.2",
		"scale":[1.0,
		1.0,
		1.0],
		"translation":[1.4135998487472535,
		0.44999998807907107,
		-2.9052746295928957],
		"rotation":[6.614608305532954e-10,
		-0.08877976983785629,
		7.421160130860471e-9,
		-0.9960512518882752],
		"mesh":7
	},
	{
		"name":"Cube",
		"scale":[1.0,
		1.0,
		1.0],
		"translation":[1.6649863719940186,
		0.4000000059604645,
		1.9108836650848389],
		"rotation":[0.0,
		-0.7877487540245056,
		0.0,
		0.6159966588020325],
		"mesh":8
	},
	{
		"name":"Cone.3",
		"scale":[1.0,
		1.0,
		1.0],
		"translation":[0.0,
		2.546626329421997,
		0.0],
		"rotation":[0.0,
		0.0,
		0.0,
		-1.0],
		"mesh":9
	},
	{
		"name":"Cylinder",
		"scale":[1.0,
		1.0,
		1.0],
		"translation":[0.0,
		0.30000001192092898,
		0.0],
		"rotation":[0.0,
		0.0,
		0.0,
		-1.0],
		"mesh":10
	}],
	"meshes":[{
		"name":"Cube.7-Mat.9",
		"primitives":[{
			"attributes":{
				"POSITION":1,
				"NORMAL":2,
				"TEXCOORD_0":3
			},
			"indices":0,
			"material":0
		}]
	},
	{
		"name":"Cube.7-Mat.10",
		"primitives":[{
			"attributes":{
				"POSITION":5,
				"NORMAL":6,
				"TEXCOORD_0":7
			},
			"indices":4,
			"material":1
		}]
	},
	{
		"name":"Cube.8-Mat.9",
		"primitives":[{
			"attributes":{
				"POSITION":9,
				"NORMAL":10,
				"TEXCOORD_0":11
			},
			"indices":8,
			"material":0
		}]
	},
	{
		"name":"Cube.8-Mat.10",
		"primitives":[{
			"attributes":{
				"POSITION":13,
				"NORMAL":14,
				"TEXCOORD_0":15
			},
			"indices":12,
			"material":1
		}]
	},
	{
		"name":"Cube.6",
		"primitives":[{
			"attributes":{
				"POSITION":17,
				"NORMAL":18,
				"TEXCOORD_0":19
			},
			"indices":16,
			"material":2
		}]
	},
	{
		"name":"Cube.4",
		"primitives":[{
			"attributes":{
				"POSITION":21,
				"NORMAL":22,
				"TEXCOORD_0":23
			},
			"indices":20,
			"material":3
		}]
	},
	{
		"name":"Cube.3",
		"primitives":[{
			"attributes":{
				"POSITION":25,
				"NORMAL":26,
				"TEXCOORD_0":27
			},
			"indices":24,
			"material":4
		}]
	},
	{
		"name":"Cube.2",
		"primitives":[{
			"attributes":{
				"POSITION":29,
				"NORMAL":30,
				"TEXCOORD_0":31
			},
			"indices":28,
			"material":5
		}]
	},
	{
		"name":"Cube",
		"primitives":[{
			"attributes":{
				"POSITION":33,
				"NORMAL":34,
				"TEXCOORD_0":35
			},
			"indices":32,
			"material":6
		}]
	},
	{
		"name":"Cone.3",
		"primitives":[{
			"attributes":{
				"POSITION":37,
				"NORMAL":38,
				"TEXCOORD_0":39
			},
			"indices":36,
			"material":7
		}]
	},
	{
		"name":"Cylinder",
		"primitives":[{
			"attributes":{
				"POSITION":41,
				"NORMAL":42,
				"TEXCOORD_0":43
			},
			"indices":40,
			"material":8
		}]
	}],
	"accessors":[{
		"bufferView":0,
		"type":"SCALAR",
		"componentType":5123,
		"count":72,
		"byteOffset":0,
		"min":[0],
		"max":[47]
	},
	{
		"bufferView":1,
		"type":"VEC3",
		"componentType":5126,
		"count":48,
		"byteOffset":0,
		"min":[-1.106446623802185,
		-0.09645331650972367,
		0.5936474800109863],
		"max":[-0.5256407856941223,
		0.09642001241445542,
		1.2632291316986085]
	},
	{
		"bufferView":1,
		"type":"VEC3",
		"componentType":5126,
		"count":48,
		"byteOffset":12,
		"min":[-0.9993438124656677,
		-1.0,
		-0.9993438124656677],
		"max":[0.9993438124656677,
		1.0,
		0.9993438124656677]
	},
	{
		"bufferView":1,
		"type":"VEC2",
		"componentType":5126,
		"count":48,
		"byteOffset":24,
		"min":[0.0,
		0.0],
		"max":[1.0,
		1.0]
	},
	{
		"bufferView":2,
		"type":"SCALAR",
		"componentType":5123,
		"count":72,
		"byteOffset":0,
		"min":[0],
		"max":[47]
	},
	{
		"bufferView":3,
		"type":"VEC3",
		"componentType":5126,
		"count":48,
		"byteOffset":0,
		"min":[-1.1137222051620484,
		-0.09645331650972367,
		0.7817431092262268],
		"max":[-0.5626718401908875,
		0.10120155662298203,
		1.0335772037506104]
	},
	{
		"bufferView":3,
		"type":"VEC3",
		"componentType":5126,
		"count":48,
		"byteOffset":12,
		"min":[-0.9993438124656677,
		-1.0,
		-0.9993438124656677],
		"max":[0.9993438124656677,
		1.0,
		0.9993438124656677]
	},
	{
		"bufferView":3,
		"type":"VEC2",
		"componentType":5126,
		"count":48,
		"byteOffset":24,
		"min":[0.0,
		0.0],
		"max":[1.0,
		1.0]
	},
	{
		"bufferView":4,
		"type":"SCALAR",
		"componentType":5123,
		"count":72,
		"byteOffset":0,
		"min":[0],
		"max":[47]
	},
	{
		"bufferView":5,
		"type":"VEC3",
		"componentType":5126,
		"count":48,
		"byteOffset":0,
		"min":[-0.8477166295051575,
		-0.09645331650972367,
		0.5936474800109863],
		"max":[-0.5256407856941223,
		0.09642001241445542,
		1.114758849143982]
	},
	{
		"bufferView":5,
		"type":"VEC3",
		"componentType":5126,
		"count":48,
		"byteOffset":12,
		"min":[-0.9819375276565552,
		-1.0,
		-0.9819375276565552],
		"max":[0.9819375276565552,
		1.0,
		0.9819375276565552]
	},
	{
		"bufferView":5,
		"type":"VEC2",
		"componentType":5126,
		"count":48,
		"byteOffset":24,
		"min":[0.0,
		0.0],
		"max":[1.0,
		1.0]
	},
	{
		"bufferView":6,
		"type":"SCALAR",
		"componentType":5123,
		"count":72,
		"byteOffset":0,
		"min":[0],
		"max":[47]
	},
	{
		"bufferView":7,
		"type":"VEC3",
		"componentType":5126,
		"count":48,
		"byteOffset":0,
		"min":[-0.8250767588615418,
		-0.09645331650972367,
		0.7817431092262268],
		"max":[-0.5626718401908875,
		0.10120155662298203,
		0.8912853002548218]
	},
	{
		"bufferView":7,
		"type":"VEC3",
		"componentType":5126,
		"count":48,
		"byteOffset":12,
		"min":[-0.9819375276565552,
		-1.0,
		-0.9819375276565552],
		"max":[0.9819375276565552,
		1.0,
		0.9819375276565552]
	},
	{
		"bufferView":7,
		"type":"VEC2",
		"componentType":5126,
		"count":48,
		"byteOffset":24,
		"min":[0.0,
		0.0],
		"max":[1.0,
		1.0]
	},
	{
		"bufferView":8,
		"type":"SCALAR",
		"componentType":5123,
		"count":252,
		"byteOffset":0,
		"min":[0],
		"max":[123]
	},
	{
		"bufferView":9,
		"type":"VEC3",
		"componentType":5126,
		"count":124,
		"byteOffset":0,
		"min":[-2.0031142234802248,
		-1.0506268739700318,
		-2.9906833171844484],
		"max":[-1.5753272771835328,
		-0.6926687955856323,
		-2.4912302494049074]
	},
	{
		"bufferView":9,
		"type":"VEC3",
		"componentType":5126,
		"count":124,
		"byteOffset":12,
		"min":[-0.7775740027427673,
		-0.8306384682655335,
		-0.6467456221580505],
		"max":[0.7849193811416626,
		0.8708808422088623,
		0.6342935562133789]
	},
	{
		"bufferView":9,
		"type":"VEC2",
		"componentType":5126,
		"count":124,
		"byteOffset":24,
		"min":[0.0,
		0.0],
		"max":[1.0,
		1.0]
	},
	{
		"bufferView":10,
		"type":"SCALAR",
		"componentType":5123,
		"count":36,
		"byteOffset":0,
		"min":[0],
		"max":[23]
	},
	{
		"bufferView":11,
		"type":"VEC3",
		"componentType":5126,
		"count":24,
		"byteOffset":0,
		"min":[-0.3584684729576111,
		-0.3584684729576111,
		-0.3584684729576111],
		"max":[0.3584684729576111,
		0.3584684729576111,
		0.3584684729576111]
	},
	{
		"bufferView":11,
		"type":"VEC3",
		"componentType":5126,
		"count":24,
		"byteOffset":12,
		"min":[-1.0,
		-1.0,
		-1.0],
		"max":[1.0,
		1.0,
		1.0]
	},
	{
		"bufferView":11,
		"type":"VEC2",
		"componentType":5126,
		"count":24,
		"byteOffset":24,
		"min":[0.0,
		0.0],
		"max":[1.0,
		1.0]
	},
	{
		"bufferView":12,
		"type":"SCALAR",
		"componentType":5123,
		"count":36,
		"byteOffset":0,
		"min":[0],
		"max":[23]
	},
	{
		"bufferView":13,
		"type":"VEC3",
		"componentType":5126,
		"count":24,
		"byteOffset":0,
		"min":[-0.3584684729576111,
		-0.3584684729576111,
		-0.3584684729576111],
		"max":[0.3584684729576111,
		0.3584684729576111,
		0.3584684729576111]
	},
	{
		"bufferView":13,
		"type":"VEC3",
		"componentType":5126,
		"count":24,
		"byteOffset":12,
		"min":[-1.0,
		-1.0,
		-1.0],
		"max":[1.0,
		1.0,
		1.0]
	},
	{
		"bufferView":13,
		"type":"VEC2",
		"componentType":5126,
		"count":24,
		"byteOffset":24,
		"min":[0.0,
		0.0],
		"max":[1.0,
		1.0]
	},
	{
		"bufferView":14,
		"type":"SCALAR",
		"componentType":5123,
		"count":36,
		"byteOffset":0,
		"min":[0],
		"max":[23]
	},
	{
		"bufferView":15,
		"type":"VEC3",
		"componentType":5126,
		"count":24,
		"byteOffset":0,
		"min":[-0.8710067868232727,
		-0.46982866525650027,
		0.4519912898540497],
		"max":[-0.23134946823120118,
		0.7198286652565002,
		1.0916485786437989]
	},
	{
		"bufferView":15,
		"type":"VEC3",
		"componentType":5126,
		"count":24,
		"byteOffset":12,
		"min":[-1.0,
		-1.0,
		-1.0],
		"max":[1.0,
		1.0,
		1.0]
	},
	{
		"bufferView":15,
		"type":"VEC2",
		"componentType":5126,
		"count":24,
		"byteOffset":24,
		"min":[0.0,
		0.0],
		"max":[1.0,
		1.0]
	},
	{
		"bufferView":16,
		"type":"SCALAR",
		"componentType":5123,
		"count":36,
		"byteOffset":0,
		"min":[0],
		"max":[23]
	},
	{
		"bufferView":17,
		"type":"VEC3",
		"componentType":5126,
		"count":24,
		"byteOffset":0,
		"min":[-0.4258476495742798,
		-0.4258476495742798,
		-0.4258476495742798],
		"max":[0.4258476495742798,
		0.4258476495742798,
		0.4258476495742798]
	},
	{
		"bufferView":17,
		"type":"VEC3",
		"componentType":5126,
		"count":24,
		"byteOffset":12,
		"min":[-1.0,
		-1.0,
		-1.0],
		"max":[1.0,
		1.0,
		1.0]
	},
	{
		"bufferView":17,
		"type":"VEC2",
		"componentType":5126,
		"count":24,
		"byteOffset":24,
		"min":[0.0,
		0.0],
		"max":[1.0,
		1.0]
	},
	{
		"bufferView":18,
		"type":"SCALAR",
		"componentType":5123,
		"count":864,
		"byteOffset":0,
		"min":[0],
		"max":[391]
	},
	{
		"bufferView":19,
		"type":"VEC3",
		"componentType":5126,
		"count":392,
		"byteOffset":0,
		"min":[-1.149999976158142,
		-2.460237979888916,
		-1.149999976158142],
		"max":[1.149999976158142,
		1.7752004861831666,
		1.149999976158142]
	},
	{
		"bufferView":19,
		"type":"VEC3",
		"componentType":5126,
		"count":392,
		"byteOffset":12,
		"min":[-0.8864868879318237,
		-1.0,
		-0.8864868879318237],
		"max":[0.8864868879318237,
		0.28161877393722536,
		0.8864868879318237]
	},
	{
		"bufferView":19,
		"type":"VEC2",
		"componentType":5126,
		"count":392,
		"byteOffset":24,
		"min":[0.0,
		0.0],
		"max":[1.0,
		1.0]
	},
	{
		"bufferView":20,
		"type":"SCALAR",
		"componentType":5123,
		"count":96,
		"byteOffset":0,
		"min":[0],
		"max":[49]
	},
	{
		"bufferView":21,
		"type":"VEC3",
		"componentType":5126,
		"count":50,
		"byteOffset":0,
		"min":[-0.5,
		-0.3100000023841858,
		-0.5],
		"max":[0.5,
		0.3100000023841858,
		0.5]
	},
	{
		"bufferView":21,
		"type":"VEC3",
		"componentType":5126,
		"count":50,
		"byteOffset":12,
		"min":[-0.9238795638084412,
		-1.0,
		-0.9238795638084412],
		"max":[0.9238795638084412,
		1.0,
		0.9238795638084412]
	},
	{
		"bufferView":21,
		"type":"VEC2",
		"componentType":5126,
		"count":50,
		"byteOffset":24,
		"min":[0.0,
		0.0],
		"max":[1.0,
		1.0]
	}],
	"bufferViews":[{
		"target":34963,
		"buffer":0,
		"byteOffset":0,
		"byteLength":144
	},
	{
		"target":34962,
		"buffer":0,
		"byteOffset":144,
		"byteLength":1536,
		"byteStride":32
	},
	{
		"target":34963,
		"buffer":1,
		"byteOffset":0,
		"byteLength":144
	},
	{
		"target":34962,
		"buffer":1,
		"byteOffset":144,
		"byteLength":1536,
		"byteStride":32
	},
	{
		"target":34963,
		"buffer":2,
		"byteOffset":0,
		"byteLength":144
	},
	{
		"target":34962,
		"buffer":2,
		"byteOffset":144,
		"byteLength":1536,
		"byteStride":32
	},
	{
		"target":34963,
		"buffer":3,
		"byteOffset":0,
		"byteLength":144
	},
	{
		"target":34962,
		"buffer":3,
		"byteOffset":144,
		"byteLength":1536,
		"byteStride":32
	},
	{
		"target":34963,
		"buffer":4,
		"byteOffset":0,
		"byteLength":504
	},
	{
		"target":34962,
		"buffer":4,
		"byteOffset":504,
		"byteLength":3968,
		"byteStride":32
	},
	{
		"target":34963,
		"buffer":5,
		"byteOffset":0,
		"byteLength":72
	},
	{
		"target":34962,
		"buffer":5,
		"byteOffset":72,
		"byteLength":768,
		"byteStride":32
	},
	{
		"target":34963,
		"buffer":6,
		"byteOffset":0,
		"byteLength":72
	},
	{
		"target":34962,
		"buffer":6,
		"byteOffset":72,
		"byteLength":768,
		"byteStride":32
	},
	{
		"target":34963,
		"buffer":7,
		"byteOffset":0,
		"byteLength":72
	},
	{
		"target":34962,
		"buffer":7,
		"byteOffset":72,
		"byteLength":768,
		"byteStride":32
	},
	{
		"target":34963,
		"buffer":8,
		"byteOffset":0,
		"byteLength":72
	},
	{
		"target":34962,
		"buffer":8,
		"byteOffset":72,
		"byteLength":768,
		"byteStride":32
	},
	{
		"target":34963,
		"buffer":9,
		"byteOffset":0,
		"byteLength":1728
	},
	{
		"target":34962,
		"buffer":9,
		"byteOffset":1728,
		"byteLength":12544,
		"byteStride":32
	},
	{
		"target":34963,
		"buffer":10,
		"byteOffset":0,
		"byteLength":192
	},
	{
		"target":34962,
		"buffer":10,
		"byteOffset":192,
		"byteLength":1600,
		"byteStride":32
	}],
	"buffers":[{
		"uri":"data:application/octet-stream;base64,",
		"byteLength":1680
	},
	{
		"uri":"data:application/octet-stream;base64,",
		"byteLength":1680
	},
	{
		"uri":"data:application/octet-stream;base64,",
		"byteLength":1680
	},
	{
		"uri":"data:application/octet-stream;base64,",
		"byteLength":1680
	},
	{
		"uri":"data:application/octet-stream;base64,",
		"byteLength":4472
	},
	{
		"uri":"data:application/octet-stream;base64,",
		"byteLength":840
	},
	{
		"uri":"data:application/octet-stream;base64,",
		"byteLength":840
	},
	{
		"uri":"data:application/octet-stream;base64,",
		"byteLength":840
	},
	{
		"uri":"data:application/octet-stream;base64,",
		"byteLength":840
	},
	{
		"uri":"data:application/octet-stream;base64,",
		"byteLength":14272
	},
	{
		"uri":"data:application/octet-stream;base64,",
		"byteLength":1792
	}],
	"materials":[{
		"pbrMetallicRoughness":{
			"baseColorFactor":[0.33390000000000005,
			0.63,
			0.3388350000000002,
			1.0],
			"metallicFactor":0.0,
			"roughnessFactor":0.5
		},
		"emissiveFactor":[0.0,
		0.0,
		0.0],
		"alphaMode":"OPAQUE",
		"doubleSided":false,
		"name":"Mat.9"
	},
	{
		"pbrMetallicRoughness":{
			"baseColorFactor":[0.7701333333333333,
			0.8,
			0.352,
			1.0],
			"metallicFactor":0.0,
			"roughnessFactor":0.5
		},
		"emissiveFactor":[0.0,
		0.0,
		0.0],
		"alphaMode":"OPAQUE",
		"doubleSided":false,
		"name":"Mat.10"
	},
	{
		"pbrMetallicRoughness":{
			"baseColorFactor":[0.33,
			0.33,
			0.33,
			1.0],
			"metallicFactor":0.0,
			"roughnessFactor":0.5
		},
		"emissiveFactor":[0.0,
		0.0,
		0.0],
		"alphaMode":"OPAQUE",
		"doubleSided":false,
		"name":"Mat.8"
	},
	{
		"pbrMetallicRoughness":{
			"baseColorFactor":[0.6994666666666667,
			0.33600000000000015,
			0.8,
			1.0],
			"metallicFactor":0.0,
			"roughnessFactor":0.5
		},
		"emissiveFactor":[0.0,
		0.0,
		0.0],
		"alphaMode":"OPAQUE",
		"doubleSided":false,
		"name":"Mat.7"
	},
	{
		"pbrMetallicRoughness":{
			"baseColorFactor":[0.8,
			0.6549333333333334,
			0.2879999999999999,
			1.0],
			"metallicFactor":0.0,
			"roughnessFactor":0.5
		},
		"emissiveFactor":[0.0,
		0.0,
		0.0],
		"alphaMode":"OPAQUE",
		"doubleSided":false,
		"name":"Mat.5"
	},
	{
		"pbrMetallicRoughness":{
			"baseColorFactor":[0.22400000000000004,
			0.32000000000000025,
			0.8,
			1.0],
			"metallicFactor":0.0,
			"roughnessFactor":0.5
		},
		"emissiveFactor":[0.0,
		0.0,
		0.0],
		"alphaMode":"OPAQUE",
		"doubleSided":false,
		"name":"Mat.4"
	},
	{
		"pbrMetallicRoughness":{
			"baseColorFactor":[0.8,
			0.20800000000000003,
			0.20800000000000003,
			1.0],
			"metallicFactor":0.0,
			"roughnessFactor":0.0
		},
		"emissiveFactor":[0.0,
		0.0,
		0.0],
		"alphaMode":"OPAQUE",
		"doubleSided":false,
		"name":"Mat.3"
	},
	{
		"pbrMetallicRoughness":{
			"baseColorFactor":[0.0,
			0.8,
			0.013333333333333288,
			1.0],
			"metallicFactor":0.0,
			"roughnessFactor":0.0
		},
		"emissiveFactor":[0.0,
		0.0,
		0.0],
		"alphaMode":"OPAQUE",
		"doubleSided":false,
		"name":"Mat"
	},
	{
		"pbrMetallicRoughness":{
			"baseColorFactor":[0.46,
			0.21712000000000016,
			0.0552,
			1.0],
			"metallicFactor":0.0,
			"roughnessFactor":0.0
		},
		"emissiveFactor":[0.0,
		0.0,
		0.0],
		"alphaMode":"OPAQUE",
		"doubleSided":false,
		"name":"Mat.1"
	}]
}