<?xml version="1.0" encoding="UTF-8"?>
<svg version="1.1" xmlns="http://www.w3.org/2000/svg" width="512" height="512">
<path d="M0 0 C168.96 0 337.92 0 512 0 C512 168.96 512 337.92 512 512 C343.04 512 174.08 512 0 512 C0 343.04 0 174.08 0 0 Z " fill="#000000" transform="translate(0,0)"/>
<path d="M0 0 C0.70079681 -0.00175232 1.40159363 -0.00350464 2.12362671 -0.00531006 C4.45093224 -0.00972813 6.77816239 -0.00679076 9.10546875 -0.00341797 C10.71590184 -0.00409102 12.32633484 -0.00506106 13.93676758 -0.00631714 C17.3162533 -0.00779405 20.69571265 -0.00563978 24.07519531 -0.00097656 C28.4167338 0.00472073 32.75821048 0.00144169 37.0997467 -0.00454903 C40.42647776 -0.00815482 43.75319405 -0.00701597 47.07992554 -0.00442123 C48.68118293 -0.00375202 50.28244165 -0.00458021 51.88369751 -0.00690079 C54.11781386 -0.00942762 56.35182875 -0.00558632 58.5859375 0 C60.49669067 0.00119339 60.49669067 0.00119339 62.44604492 0.00241089 C65.29296875 0.12939453 65.29296875 0.12939453 66.29296875 1.12939453 C66.38608764 2.63358192 66.41042903 4.14210809 66.40649414 5.64916992 C66.40637329 6.62358032 66.40625244 7.59799072 66.40612793 8.60192871 C66.40101196 9.63321899 66.395896 10.66450928 66.390625 11.72705078 C66.38961792 12.66963745 66.38861084 13.61222412 66.38757324 14.58337402 C66.38232352 18.11955982 66.36836239 21.65572834 66.35546875 25.19189453 C66.33484375 33.09126953 66.31421875 40.99064453 66.29296875 49.12939453 C85.43296875 49.12939453 104.57296875 49.12939453 124.29296875 49.12939453 C124.29296875 73.54939453 124.29296875 97.96939453 124.29296875 123.12939453 C105.15296875 123.12939453 86.01296875 123.12939453 66.29296875 123.12939453 C66.29296875 194.73939453 66.29296875 266.34939453 66.29296875 340.12939453 C41.87296875 340.12939453 17.45296875 340.12939453 -7.70703125 340.12939453 C-7.70703125 268.51939453 -7.70703125 196.90939453 -7.70703125 123.12939453 C-27.50703125 123.12939453 -47.30703125 123.12939453 -67.70703125 123.12939453 C-67.70703125 98.70939453 -67.70703125 74.28939453 -67.70703125 49.12939453 C-47.90703125 49.12939453 -28.10703125 49.12939453 -7.70703125 49.12939453 C-7.74663954 33.37754647 -7.74663954 33.37754647 -7.79711914 17.62573242 C-7.80003815 15.65950576 -7.80258674 13.69327849 -7.8046875 11.72705078 C-7.80980347 10.6957605 -7.81491943 9.66447021 -7.82019043 8.60192871 C-7.8203717 7.14031311 -7.8203717 7.14031311 -7.82055664 5.64916992 C-7.82277725 4.79867569 -7.82499786 3.94818146 -7.82728577 3.07191467 C-7.5529032 -1.36029851 -3.5963507 0.00224616 0 0 Z " fill="#FDFDFD" transform="translate(226.70703125,171.87060546875)"/>
<path d="M0 0 C24.75 0 49.5 0 75 0 C75 61.05 75 122.1 75 185 C50.25 185 25.5 185 0 185 C0 123.95 0 62.9 0 0 Z " fill="#FBFBFB" transform="translate(49,327)"/>
<path d="M0 0 C24.75 0 49.5 0 75 0 C75 59.73 75 119.46 75 181 C50.25 181 25.5 181 0 181 C0 121.27 0 61.54 0 0 Z " fill="#FBFBFB" transform="translate(382,331)"/>
<path d="M0 0 C8.83392069 7.48704489 15.56124413 17.41487572 17.42578125 29.02734375 C18.46171887 44.53244285 15.46275126 57.16887358 5.4609375 69.4375 C-2.34004107 77.88738456 -13.17840124 83.73897314 -24.80859375 84.36328125 C-39.27178331 84.65562739 -49.44497036 81.78865721 -60.57421875 72.02734375 C-71.02698373 61.44992911 -74.86788972 49.26515393 -74.89111328 34.7878418 C-74.69834978 21.5430855 -69.31752804 11.94584242 -60.44921875 2.33984375 C-43.50818517 -14.00125441 -18.24035995 -13.97781756 0 0 Z " fill="#FDFDFD" transform="translate(450.57421875,224.97265625)"/>
<path d="M0 0 C8.83392069 7.48704489 15.56124413 17.41487572 17.42578125 29.02734375 C18.46171887 44.53244285 15.46275126 57.16887358 5.4609375 69.4375 C-2.34004107 77.88738456 -13.17840124 83.73897314 -24.80859375 84.36328125 C-39.27178331 84.65562739 -49.44497036 81.78865721 -60.57421875 72.02734375 C-71.02698373 61.44992911 -74.86788972 49.26515393 -74.89111328 34.7878418 C-74.69834978 21.5430855 -69.31752804 11.94584242 -60.44921875 2.33984375 C-43.50818517 -14.00125441 -18.24035995 -13.97781756 0 0 Z " fill="#FDFDFD" transform="translate(116.57421875,221.97265625)"/>
</svg>
